# AST/ASF file generated using VICON BodyLanguage
# -----------------------------------------------
:version 1.10
:name VICON
:units
  mass 1.0
  length 0.45
  angle deg
:documentation
   .ast/.asf automatically generated from VICON data using
   VICON BodyBuilder and BodyLanguage model FoxedUp or BRILLIANT.MOD
:root
   order TX TY TZ RX RY RZ
   axis XYZ
   position 0 0 0  
   orientation 0 0 0 
:bonedata
  begin
     id 1 
     name lhipjoint
     direction 0.78388 -0.462562 0.414208 
     length 3.01181 
     axis 0 0 0  XYZ
  end
  begin
     id 2 
     name lfemur
     direction 0.34202 -0.939693 0  
     length 6.04673  
     axis 0 0 20  XYZ
    dof rx ry rz
    limits (-160.0 20.0)
           (-70.0 70.0)
           (-60.0 70.0)
  end
  begin
     id 3 
     name ltibia
     direction 0.34202 -0.939693 0   
     length 7.211   
     axis 0 0 20   XYZ
    dof rx
    limits (-10.0 170.0)
  end
  begin
     id 4 
     name lfoot
     direction 0.121887 -0.334882 0.934344   
     length 2.13567   
     axis -90 7.62852e-016 20   XYZ
    dof rx rz
    limits (-45.0 90.0)
           (-70.0 20.0)
  end
  begin
     id 5 
     name ltoes
     direction 1.53555e-011 -4.2179e-011 1   
     length 1.05957   
     axis -90 7.62852e-016 20   XYZ
    dof rx
    limits (-90.0 20.0)
  end
  begin
     id 6 
     name rhipjoint
     direction -0.769387 -0.475875 0.426129   
     length 2.92756  
     axis 0 0 0  XYZ 
  end
  begin
     id 7 
     name rfemur
     direction -0.34202 -0.939693 0   
     length 6.35468   
     axis 0 0 -20   XYZ
    dof rx ry rz
    limits (-160.0 20.0)
           (-70.0 70.0)
           (-70.0 60.0)
  end
  begin
     id 8 
     name rtibia
     direction -0.34202 -0.939693 0   
     length 7.37886   
     axis 0 0 -20   XYZ
    dof rx
    limits (-10.0 170.0)
 end
 begin
     id 9 
     name rfoot
     direction -0.101763 -0.279592 0.954711   
     length 2.21478  
     axis -90 -7.62852e-016 -20   XYZ
    dof rx rz
    limits (-45.0 90.0)
           (-20.0 70.0)
  end
  begin
     id 10 
     name rtoes
     direction -1.53494e-011 -4.21851e-011 1   
     length 1.10506   
     axis -90 -7.62852e-016 -20   XYZ
    dof rx
    limits (-90.0 20.0)
  end
  begin
     id 11 
     name lowerback
     direction 0.00747405 0.999267 0.0375481   
     length 2.13259   
     axis 0 0 0   XYZ
    dof rx ry rz
    limits (-20.0 45.0)
           (-30.0 30.0)
           (-30.0 30.0)
  end
  begin
     id 12 
     name upperback
     direction 0.00661626 0.996177 0.0871029   
     length 2.10528   
     axis 0 0 0   XYZ
    dof rx ry rz
    limits (-20.0 45.0)
           (-30.0 30.0)
           (-30.0 30.0)
  end
  begin
     id 13 
     name thorax
     direction 0.00320659 0.997679 0.0680167   
     length 2.11338   
     axis 0 0 0   XYZ
    dof rx ry rz
    limits (-20.0 45.0)
           (-30.0 30.0)
           (-30.0 30.0)
  end
  begin
     id 14 
     name lowerneck
     direction 0.0374841 0.973033 0.227602   
     length 1.42765   
     axis 0 0 0   XYZ
    dof rx ry rz
    limits (-20.0 45.0)
           (-30.0 30.0)
           (-30.0 30.0)
  end
  begin
     id 15 
     name upperneck
     direction 0.00481585 0.989155 -0.146795   
     length 1.47593   
     axis 0 0 0   XYZ
    dof rx ry rz
    limits (-20.0 45.0)
           (-30.0 30.0)
           (-30.0 30.0)
  end
  begin
     id 16
     name head
     direction -0.00292522 0.997206 -0.0746423  
     length 1.48116  
     axis 0 0 0   XYZ
    dof rx ry rz
    limits (-20.0 45.0)
           (-30.0 30.0)
           (-30.0 30.0)
  end
  begin
     id 17 
     name lclavicle
     direction 0.951444 0.305606 0.0368784  
     length 3.01855  
     axis 0 0 0   XYZ
    dof ry rz
    limits (-20.0 10.0)
           (0.0 20.0)
  end
  begin
     id 18 
     name lhumerus
     direction 1 -4.48977e-011 2.61664e-027   
     length 5.52731   
     axis 180 -30 -90   XYZ
    dof rx ry rz
    limits (-60.0 90.0)
           (-90.0 90.0)
           (-90.0 90.0)
  end
  begin
     id 19
     name lradius
     direction 1 -4.48944e-011 8.22157e-027   
     length 3.11059   
     axis 180 -30 -90   XYZ
    dof rx
    limits (-10.0 170.0)
  end
  begin
     id 20
     name lwrist
     direction 1 -4.48976e-011 1.5779e-026   
     length 1.5553   
     axis -1.15221e-014 90 90   XYZ
    dof ry
    limits (-180.0 0.0)
 end
  begin
     id 21 
     name lhand
     direction 1 -4.49025e-011 3.1558e-026   
     length 0.419626   
     axis -2.01367e-014 90 90   XYZ
    dof rx rz
    limits (-90.0 90.0)
           (-45.0 45.0)
  end
  begin
     id 22 
     name lfingers
     direction 1 -4.4904e-011 6.31161e-026   
     length 0.338313   
     axis -4.02734e-014 90 90   XYZ
    dof rx
    limits (0.0 90.0)
  end
  begin
     id 23
     name lthumb
     direction 0.707107 -6.35004e-011 0.707107   
     length 0.485752   
     axis -90 45 2.85299e-015   XYZ
    dof rx rz
    limits (-45.0 45.0)
           (-45.0 45.0)
  end
  begin
     id 24 
     name rclavicle
     direction -0.968876 0.223791 0.105816   
     length 3.04177  
     axis 0 0 0   XYZ 
    dof ry rz
    limits (-10.0 20.0)
           (-20.0 0.0)
  end
  begin
     id 25 
     name rhumerus
     direction -1 -4.48962e-011 -1.01384e-027  
     length 5.25396   
     axis 180 30 90   XYZ
    dof rx ry rz
    limits (-90.0 60.0)
           (-90.0 90.0)
           (-90.0 90.0)
  end
  begin
     id 26 
     name rradius
     direction -1 -4.48955e-011 8.88542e-027   
     length 3.10567   
     axis 180 30 90   XYZ
    dof rx
    limits (-10.0 170.0)
  end
  begin
     id 27 
     name rwrist
     direction -1 -4.48994e-011 1.5779e-026   
     length 1.55283   
     axis -1.15221e-014 -90 -90   XYZ
    dof ry
    limits (-180.0 0.0)
  end
  begin
     id 28
     name rhand
     direction -1 -4.48891e-011 3.1558e-026   
     length 0.498676   
     axis -2.01367e-014 -90 -90   XYZ
    dof rx rz
    limits (-90.0 90.0)
           (-45.0 45.0)
  end
  begin
     id 29
     name rfingers
     direction -1 -4.48972e-011 6.31161e-026   
     length 0.402045   
     axis -4.02734e-014 -90 -90   XYZ
    dof rx
    limits (0.0 90.0)
  end
  begin
     id 30
     name rthumb
     direction -0.707107 -6.34849e-011 0.707107   
     length 0.577259   
     axis -90 -45 -2.85299e-015   XYZ
    dof rx rz
    limits (-45.0 45.0)
           (-45.0 45.0)
  end
:hierarchy
  begin
    root lhipjoint rhipjoint lowerback
    lhipjoint lfemur
    lfemur ltibia
    ltibia lfoot
    lfoot ltoes
    rhipjoint rfemur
    rfemur rtibia
    rtibia rfoot
    rfoot rtoes
    lowerback upperback
    upperback thorax
    thorax lowerneck lclavicle rclavicle
    lowerneck upperneck
    upperneck head
    lclavicle lhumerus
    lhumerus lradius
    lradius lwrist
    lwrist lhand lthumb
    lhand lfingers
    rclavicle rhumerus
    rhumerus rradius
    rradius rwrist
    rwrist rhand rthumb
    rhand rfingers
  end

#!OML:ASF H:\Pregnant\Project 1\Capture day 1\Session 1\femalepreg.ASF
:FULLY-SPECIFIED
:DEGREES
102
root 6.71752 14.7745 21.5318 58.9534 -78.5341 -17.2548
lowerback 4.32986 0.0721794 1.05927
upperback 1.11777 0.108952 -1.19539
thorax -1.27493 0.0453782 -1.82687
lowerneck -22.4561 1.1434 2.71373
upperneck 6.5628 0.455195 1.5752
head 5.55361 0.392841 0.123191
rclavicle -2.62396e-014 -1.00585e-013
rhumerus 1.77053 21.2329 -81.9647
rradius 36.4952
rwrist -8.93674
rhand -22.271 -17.5533
rfingers 7.12502
rthumb 4.14707 -47.4927
lclavicle -2.62396e-014 -1.00585e-013
lhumerus 3.72935 -27.4177 73.3082
lradius 30.8489
lwrist 42.1896
lhand -30.7901 -2.04941
lfingers 7.12502
lthumb -4.08044 27.8913
rfemur -78.125 1.60622 21.8055
rtibia 53.2424
rfoot -15.0111 -6.19049
rtoes -6.9261
lfemur -77.5828 1.70826 -18.7062
ltibia 51.109
lfoot -14.7232 -1.05056
ltoes -12.5408
103
root 6.7234 14.7309 21.5296 59.8679 -78.5883 -17.9193
lowerback 4.89937 0.119548 1.0339
upperback 1.24628 0.17275 -1.11156
thorax -1.45896 0.0754151 -1.73194
lowerneck -22.5141 1.12811 2.64463
upperneck 6.11479 0.448203 1.60454
head 5.41781 0.379504 0.141359
rclavicle 3.10104e-014 5.88403e-014
rhumerus 2.83336 21.4509 -81.5259
rradius 36.3561
rwrist -8.98025
rhand -22.4981 -17.5643
rfingers 7.12502
rthumb 3.92781 -47.5079
lclavicle 3.10104e-014 5.88403e-014
lhumerus 4.53319 -27.316 73.0306
lradius 31.0073
lwrist 42.5905
lhand -30.9263 -2.07199
lfingers 7.12502
lthumb -4.21197 27.8661
rfemur -78.8894 1.15661 22.4367
rtibia 53.9133
rfoot -15.3231 -5.1984
rtoes -5.76199
lfemur -78.4693 2.14047 -18.9881
ltibia 51.9945
lfoot -14.9878 -1.46151
ltoes -12.3774
104
root 6.729 14.6866 21.5272 60.7854 -78.6373 -18.5872
lowerback 5.46751 0.162432 1.00721
upperback 1.37476 0.230017 -1.0292
thorax -1.64237 0.102011 -1.63824
lowerneck -22.5542 1.12066 2.60125
upperneck 5.64853 0.447375 1.61221
head 5.27379 0.36754 0.149003
rclavicle 8.34896e-015 -3.85642e-014
rhumerus 3.91045 21.6432 -81.0962
rradius 36.2069
rwrist -8.99824
rhand -22.7036 -17.5659
rfingers 7.12502
rthumb 3.72929 -47.513
lclavicle 8.34896e-015 -3.85642e-014
lhumerus 5.33957 -27.2827 72.6994
lradius 31.2083
lwrist 43.0605
lhand -31.0579 -2.07665
lfingers 7.12502
lthumb -4.33907 27.8589
rfemur -79.6597 0.713403 23.0744
rtibia 54.591
rfoot -15.6169 -4.17783
rtoes -4.40815
lfemur -79.3589 2.56658 -19.2687
ltibia 52.8827
lfoot -15.2511 -1.86966
ltoes -12.189
105
root 6.73413 14.6418 21.5246 61.7055 -78.6804 -19.2575
lowerback 6.03503 0.204459 0.954538
upperback 1.50169 0.284674 -0.923381
thorax -1.8272 0.127239 -1.50637
lowerneck -22.5844 1.11652 2.54709
upperneck 5.17326 0.456492 1.59869
head 5.12568 0.358235 0.152538
rclavicle -1.23246e-014 1.07344e-014
rhumerus 5.00186 21.8251 -80.6318
rradius 36.0515
rwrist -8.99963
rhand -22.8779 -17.5652
rfingers 7.12502
rthumb 3.56099 -47.5152
lclavicle -1.23246e-014 1.07344e-014
lhumerus 6.16029 -27.2162 72.3968
lradius 31.3778
lwrist 43.4813
lhand -31.1715 -2.07774
lfingers 7.12502
lthumb -4.4487 27.8555
rfemur -80.435 0.274773 23.7326
rtibia 55.272
rfoot -15.8788 -3.16297
rtoes -3.10378
lfemur -80.253 2.98703 -19.5479
ltibia 53.7749
lfoot -15.5142 -2.2764
ltoes -11.9733
106
root 6.73842 14.5962 21.522 62.622 -78.7171 -19.9303
lowerback 6.6024 0.250543 0.913246
upperback 1.63097 0.344646 -0.821002
thorax -2.00914 0.154903 -1.38557
lowerneck -22.6151 1.10796 2.49719
upperneck 4.70271 0.45842 1.5787
head 4.97946 0.345053 0.152602
rclavicle -1.94809e-014 -5.92378e-014
rhumerus 6.11049 21.9032 -80.2126
rradius 35.8509
rwrist -8.92029
rhand -23.0256 -17.5641
rfingers 7.12502
rthumb 3.41838 -47.5164
lclavicle -1.94809e-014 -5.92378e-014
lhumerus 7.02073 -27.1376 72.0963
lradius 31.4886
lwrist 43.8117
lhand -31.2562 -2.09461
lfingers 7.12502
lthumb -4.53055 27.8369
rfemur -81.2073 -0.167399 24.433
rtibia 55.9527
rfoot -16.1085 -2.17931
rtoes -2.06974
lfemur -81.1431 3.39234 -19.8142
ltibia 54.6723
lfoot -15.7764 -2.6705
ltoes -11.7074
107
root 6.74181 14.5496 21.5195 63.5254 -78.7462 -20.598
lowerback 7.17008 0.299118 0.896091
upperback 1.76517 0.408571 -0.733043
thorax -2.18557 0.184231 -1.29426
lowerneck -22.6629 1.09828 2.44999
upperneck 4.25349 0.454855 1.57279
head 4.84283 0.330667 0.156342
rclavicle -3.26007e-014 -1.43125e-014
rhumerus 7.22873 21.9066 -79.8114
rradius 35.6385
rwrist -8.82078
rhand -23.139 -17.5663
rfingers 7.12502
rthumb 3.3089 -47.5204
lclavicle -3.26007e-014 -1.43125e-014
lhumerus 7.92578 -27.1197 71.7492
lradius 31.578
lwrist 44.1203
lhand -31.3344 -2.1097
lfingers 7.12502
lthumb -4.606 27.8202
rfemur -81.9749 -0.614732 25.1755
rtibia 56.6337
rfoot -16.3166 -1.22384
rtoes -1.27926
lfemur -82.0273 3.78578 -20.0732
ltibia 55.5732
lfoot -16.0392 -3.05619
ltoes -11.4221
108
root 6.7439 14.5021 21.5171 64.4093 -78.7714 -21.2582
lowerback 7.74601 0.345571 0.881674
upperback 1.90289 0.469344 -0.64808
thorax -2.36269 0.21171 -1.20811
lowerneck -22.7212 1.09059 2.40105
upperneck 3.81577 0.451985 1.5784
head 4.71163 0.317546 0.164202
rclavicle 1.07344e-014 5.725e-014
rhumerus 8.35973 21.8849 -79.4178
rradius 35.4136
rwrist -8.73194
rhand -23.2379 -17.5571
rfingers 7.12502
rthumb 3.21335 -47.5126
lclavicle 1.07344e-014 5.725e-014
lhumerus 8.86647 -27.1007 71.3889
lradius 31.6169
lwrist 44.3633
lhand -31.4037 -2.13616
lfingers 7.12502
lthumb -4.67299 27.7923
rfemur -82.7323 -1.06831 25.9616
rtibia 57.3155
rfoot -16.5132 -0.305749
rtoes -0.777519
lfemur -82.8962 4.16565 -20.3233
ltibia 56.4752
lfoot -16.3065 -3.43218
ltoes -11.1063
109
root 6.74473 14.4539 21.5149 65.2652 -78.794 -21.9024
lowerback 8.32396 0.384895 0.890974
upperback 2.04783 0.521207 -0.59222
thorax -2.53279 0.234381 -1.16513
lowerneck -22.7891 1.09173 2.38849
upperneck 3.38501 0.447505 1.60222
head 4.58433 0.305433 0.172023
rclavicle -3.18055e-014 -1.27222e-014
rhumerus 9.51033 21.7853 -79.1149
rradius 35.1469
rwrist -8.60633
rhand -23.3374 -17.5572
rfingers 7.12502
rthumb 3.11724 -47.5141
lclavicle -3.18055e-014 -1.27222e-014
lhumerus 9.85305 -27.1513 70.9291
lradius 31.6412
lwrist 44.5927
lhand -31.4636 -2.16705
lfingers 7.12502
lthumb -4.73082 27.7601
rfemur -83.4789 -1.5191 26.7597
rtibia 58.0023
rfoot -16.7093 0.608101
rtoes -0.231432
lfemur -83.7468 4.538 -20.5761
ltibia 57.3723
lfoot -16.5792 -3.80105
ltoes -10.7979
110
root 6.74439 14.4052 21.5127 66.0763 -78.8172 -22.5104
lowerback 8.90654 0.421143 0.901107
upperback 2.19487 0.56847 -0.545776
thorax -2.7027 0.254479 -1.13252
lowerneck -22.8523 1.09259 2.37069
upperneck 2.94746 0.441595 1.64876
head 4.45436 0.293624 0.187699
rclavicle 4.37326e-014 5.80451e-014
rhumerus 10.6602 21.6852 -78.8046
rradius 34.8906
rwrist -8.53047
rhand -23.439 -17.5828
rfingers 7.12502
rthumb 3.01917 -47.5412
lclavicle 4.37326e-014 5.80451e-014
lhumerus 10.8784 -27.2571 70.4109
lradius 31.6478
lwrist 44.8107
lhand -31.5234 -2.19273
lfingers 7.12502
lthumb -4.78856 27.7332
rfemur -84.2194 -1.96479 27.5561
rtibia 58.6962
rfoot -16.9037 1.51453
rtoes 0.385254
lfemur -84.5813 4.90493 -20.843
ltibia 58.2622
lfoot -16.859 -4.16521
ltoes -10.5468
111
root 6.74298 14.356 21.5107 66.8433 -78.8427 -23.0814
lowerback 9.49207 0.458977 0.917581
upperback 2.34168 0.617733 -0.511489
thorax -2.87353 0.275242 -1.11692
lowerneck -22.9085 1.0839 2.34679
upperneck 2.50412 0.423024 1.71385
head 4.32169 0.276235 0.208899
rclavicle 3.26007e-014 2.94201e-014
rhumerus 11.8001 21.5542 -78.5062
rradius 34.6333
rwrist -8.47725
rhand -23.5517 -17.6398
rfingers 7.12502
rthumb 2.91034 -47.5997
lclavicle 3.26007e-014 2.94201e-014
lhumerus 11.949 -27.409 69.8466
lradius 31.6209
lwrist 44.9915
lhand -31.5928 -2.20682
lfingers 7.12502
lthumb -4.8556 27.7175
rfemur -84.9536 -2.38989 28.3291
rtibia 59.3984
rfoot -17.0946 2.39043
rtoes 1.03702
lfemur -85.401 5.27433 -21.1357
ltibia 59.1426
lfoot -17.1463 -4.53542
ltoes -10.3527
